<svg xmlns="http://www.w3.org/2000/svg" width="690" height="708" viewBox="0 0 690 708"><defs><style type="text/css"/></defs><g transform="translate(344.83969465648846 54) scale(1)"><g class="relationship"><g transform="translate(0 9.020453353534236) rotate(0)" stroke-width="5" stroke="#000000"><path d="M 58.695178092152055 -5.989663490593891 L 95.96898050729243 -9.793341079425122 A 40 40 0 0 1 100.02976931447472 -10 L 145.55973294255037 -10 L 191.08969657062605 -10 A 40 40 0 0 1 195.15048537780834 -9.79334107942512 L 207.69058680544623 -8.51366206436971 L 207.69058680544623 -8.51366206436971"/><polygon points="-24.8621506177483,0 -27.62461179749811,9.20820393249937 0,0 -27.62461179749811,-9.20820393249937" fill="#000000" transform="translate(291.11946588510074 0) rotate(5.826689442008371) translate(-59 0)" stroke="none"/></g><g transform="translate(145.55973294255037 -0.9795466464657636) rotate(0) translate(0 -13)"><g transform="translate(0 0)"><g transform="translate(-53.26041793823242 0)" fill="#ffffff" stroke="#000000" stroke-width="0"><rect x="0" y="0" width="106.52083587646484" height="26" rx="5" ry="5" stroke="none"/><text xml:space="preserve" x="5" y="17.319000244140625" stroke="none" text-anchor="left" font-family="sans-serif" font-size="16" font-weight="normal" fill="#000000">hasDeparture</text></g></g></g></g><g class="relationship"><g transform="translate(0 9.020453353534236) rotate(0)" stroke-width="5" stroke="#000000"><path d="M 58.695178092152055 5.989663490593891 L 95.96898050729243 9.793341079425122 A 40 40 0 0 0 100.02976931447472 10 L 145.55973294255037 10 L 191.08969657062605 10 A 40 40 0 0 0 195.15048537780834 9.79334107942512 L 207.69058680544623 8.51366206436971 L 207.69058680544623 8.51366206436971"/><polygon points="-24.8621506177483,0 -27.62461179749811,9.20820393249937 0,0 -27.62461179749811,-9.20820393249937" fill="#000000" transform="translate(291.11946588510074 0) rotate(-5.826689442008371) translate(-59 0)" stroke="none"/></g><g transform="translate(145.55973294255037 19.020453353534236) rotate(0) translate(0 -13)"><g transform="translate(0 0)"><g transform="translate(-40.42708206176758 0)" fill="#ffffff" stroke="#000000" stroke-width="0"><rect x="0" y="0" width="80.85416412353516" height="26" rx="5" ry="5" stroke="none"/><text xml:space="preserve" x="5" y="17.319000244140625" stroke="none" text-anchor="left" font-family="sans-serif" font-size="16" font-weight="normal" fill="#000000">hasArrival</text></g></g></g></g><g class="relationship"><g transform="translate(0 9.020453353534236) rotate(-178.22352900952043)" stroke-width="5" stroke="#000000"><path d="M 59 0 L 207.11739602871742 0"/><polygon points="-24.8621506177483,0 -27.62461179749811,9.20820393249937 0,0 -27.62461179749811,-9.20820393249937" fill="#000000" transform="translate(231.97954664646574 0) rotate(0)" stroke="none"/></g><g transform="translate(-132.99474670260653 4.895593745519267) rotate(1.7764709904795375) translate(0 -13)"><g transform="translate(0 0)"><g transform="translate(-43.09375 0)" fill="#ffffff" stroke="#000000" stroke-width="0"><rect x="0" y="0" width="86.1875" height="26" rx="5" ry="5" stroke="none"/><text xml:space="preserve" x="5" y="17.319000244140625" stroke="none" text-anchor="left" font-family="sans-serif" font-size="16" font-weight="normal" fill="#000000">hasAircraft</text></g></g></g></g><g class="relationship"><g transform="translate(-290.83969465648846 0) rotate(64.13900898407806)" stroke-width="5" stroke="#000000"><path d="M 59 0 L 582.9119700466808 0"/><polygon points="-24.8621506177483,0 -27.62461179749811,9.20820393249937 0,0 -27.62461179749811,-9.20820393249937" fill="#000000" transform="translate(607.7741206644291 0) rotate(0)" stroke="none"/></g><g transform="translate(-150.84214857695204 288.8138352191785) rotate(64.13900898407806) translate(0 -13)"><g transform="translate(0 0)"><g transform="translate(-43.53125 0)" fill="#ffffff" stroke="#000000" stroke-width="0"><rect x="0" y="0" width="87.0625" height="26" rx="5" ry="5" stroke="none"/><text xml:space="preserve" x="5" y="17.319000244140625" stroke="none" text-anchor="left" font-family="sans-serif" font-size="16" font-weight="normal" fill="#000000">PropertyOf</text></g></g></g></g><g class="relationship"><g transform="translate(-290.83969465648846 0) rotate(90)" stroke-width="5" stroke="#000000"><path d="M 59 0 L 216.4175533621826 0"/><polygon points="-24.8621506177483,0 -27.62461179749811,9.20820393249937 0,0 -27.62461179749811,-9.20820393249937" fill="#000000" transform="translate(241.2797039799309 0) rotate(0)" stroke="none"/></g><g transform="translate(-290.83969465648846 137.7087766810913) rotate(270) translate(0 -13)"><g transform="translate(0 0)"><g transform="translate(-35.11458396911621 0)" fill="#ffffff" stroke="#000000" stroke-width="0"><rect x="0" y="0" width="70.22916793823242" height="26" rx="5" ry="5" stroke="none"/><text xml:space="preserve" x="5" y="17.319000244140625" stroke="none" text-anchor="left" font-family="sans-serif" font-size="16" font-weight="normal" fill="#000000">hasType</text></g></g></g></g><g class="relationship"><g transform="translate(-290.83969465648846 300.2797039799309) rotate(90)" stroke-width="5" stroke="#000000"><path d="M 59 0 L 215.8581454022735 0"/><polygon points="-24.8621506177483,0 -27.62461179749811,9.20820393249937 0,0 -27.62461179749811,-9.20820393249937" fill="#000000" transform="translate(240.7202960200218 0) rotate(0)" stroke="none"/></g><g transform="translate(-290.83969465648846 437.70877668106766) rotate(270) translate(0 -13)"><g transform="translate(0 0)"><g transform="translate(-64.78125 0)" fill="#ffffff" stroke="#000000" stroke-width="0"><rect x="0" y="0" width="129.5625" height="26" rx="5" ry="5" stroke="none"/><text xml:space="preserve" x="5" y="17.319000244140625" stroke="none" text-anchor="left" font-family="sans-serif" font-size="16" font-weight="normal" fill="#000000">hasManufacturer</text></g></g></g></g><g class="relationship"><g transform="translate(0 9.020453353534236) rotate(90)" stroke-width="5" stroke="#000000"><path d="M 59 0 L 177.93266320429188 0"/><polygon points="-24.8621506177483,0 -27.62461179749811,9.20820393249937 0,0 -27.62461179749811,-9.20820393249937" fill="#000000" transform="translate(202.79481382204017 0) rotate(0)" stroke="none"/></g><g transform="translate(7.253970690164849e-15 127.48678495568018) rotate(270) translate(0 -13)"><g transform="translate(0 0)"><g transform="translate(-39.09375 0)" fill="#ffffff" stroke="#000000" stroke-width="0"><rect x="0" y="0" width="78.1875" height="26" rx="5" ry="5" stroke="none"/><text xml:space="preserve" x="5" y="17.319000244140625" stroke="none" text-anchor="left" font-family="sans-serif" font-size="16" font-weight="normal" fill="#000000">hasRoute</text></g></g></g></g><g class="relationship"><g transform="translate(-5.673900368604351e-32 270.81526717557443) rotate(90)" stroke-width="5" stroke="#000000"><path d="M 59 0 L 245.32258220662996 0"/><polygon points="-24.8621506177483,0 -27.62461179749811,9.20820393249937 0,0 -27.62461179749811,-9.20820393249937" fill="#000000" transform="translate(270.1847328243783 0) rotate(0)" stroke="none"/></g><g transform="translate(9.317191905190166e-15 422.9765582788894) rotate(270) translate(0 -13)"><g transform="translate(0 0)"><g transform="translate(-39.53125 0)" fill="#ffffff" stroke="#000000" stroke-width="0"><rect x="0" y="0" width="79.0625" height="26" rx="5" ry="5" stroke="none"/><text xml:space="preserve" x="5" y="17.319000244140625" stroke="none" text-anchor="left" font-family="sans-serif" font-size="16" font-weight="normal" fill="#000000">hasCarier</text></g></g></g></g><g class="relationship"><g transform="translate(-5.673900368604351e-32 270.81526717557443) rotate(-41.96407537757922)" stroke-width="5" stroke="#000000"><path d="M 58.695178092152055 -5.989663490593891 L 95.96898050729243 -9.793341079425122 A 40 40 0 0 1 100.02976931447472 -10 L 195.75946207102163 -10 L 291.48915482756854 -10 A 40 40 0 0 1 295.5499436347509 -9.79334107942512 L 308.09004506238875 -8.51366206436971 L 308.09004506238875 -8.51366206436971"/><polygon points="-24.8621506177483,0 -27.62461179749811,9.20820393249937 0,0 -27.62461179749811,-9.20820393249937" fill="#000000" transform="translate(391.51892414204326 0) rotate(5.826689442008371) translate(-59 0)" stroke="none"/></g><g transform="translate(138.8730877338743 132.48221800222828) rotate(-41.96407537757922) translate(0 -13)"><g transform="translate(0 0)"><g transform="translate(-53.26041793823242 0)" fill="#ffffff" stroke="#000000" stroke-width="0"><rect x="0" y="0" width="106.52083587646484" height="26" rx="5" ry="5" stroke="none"/><text xml:space="preserve" x="5" y="17.319000244140625" stroke="none" text-anchor="left" font-family="sans-serif" font-size="16" font-weight="normal" fill="#000000">hasDeparture</text></g></g></g></g><g class="relationship"><g transform="translate(-5.673900368604351e-32 270.81526717557443) rotate(-41.96407537757922)" stroke-width="5" stroke="#000000"><path d="M 58.695178092152055 5.989663490593891 L 95.96898050729243 9.793341079425122 A 40 40 0 0 0 100.02976931447472 10 L 195.75946207102163 10 L 291.48915482756854 10 A 40 40 0 0 0 295.5499436347509 9.79334107942512 L 308.09004506238875 8.51366206436971 L 308.09004506238875 8.51366206436971"/><polygon points="-24.8621506177483,0 -27.62461179749811,9.20820393249937 0,0 -27.62461179749811,-9.20820393249937" fill="#000000" transform="translate(391.51892414204326 0) rotate(-5.826689442008371) translate(-59 0)" stroke="none"/></g><g transform="translate(152.24637815122642 147.3535025268804) rotate(-41.96407537757922) translate(0 -13)"><g transform="translate(0 0)"><g transform="translate(-40.42708206176758 0)" fill="#ffffff" stroke="#000000" stroke-width="0"><rect x="0" y="0" width="80.85416412353516" height="26" rx="5" ry="5" stroke="none"/><text xml:space="preserve" x="5" y="17.319000244140625" stroke="none" text-anchor="left" font-family="sans-serif" font-size="16" font-weight="normal" fill="#000000">hasArrival</text></g></g></g></g><g class="node"><g fill="#ffffff" stroke="#000000" stroke-width="4"><circle cx="0" cy="9.020453353534236" r="52"/></g><g transform="translate(0 9.020453353534236)"><g transform="scale(0.66015658984375) translate(0 0)"><g transform="translate(0 0)"><g font-family="sans-serif" font-size="50" font-weight="normal" fill="#000000" text-anchor="middle"><text xml:space="preserve" x="0" y="13.5498046875" stroke="none">Flight</text></g></g></g></g></g><g class="node"><g fill="#ffffff" stroke="#000000" stroke-width="4"><circle cx="0" cy="599.9999999999527" r="52"/></g><g transform="translate(0 599.9999999999527)"><g transform="scale(0.6015628984374999) translate(0 0)"><g transform="translate(0 0)"><g font-family="sans-serif" font-size="50" font-weight="normal" fill="#000000" text-anchor="middle"><text xml:space="preserve" x="0" y="13.5498046875" stroke="none">Carier</text></g></g></g></g></g><g class="node"><g fill="#ffffff" stroke="#000000" stroke-width="4"><circle cx="291.11946588510074" cy="9.020453353534236" r="52"/></g><g transform="translate(291.11946588510074 9.020453353534236)"><g transform="scale(0.5625004375) translate(0 0)"><g transform="translate(0 0)"><g font-family="sans-serif" font-size="50" font-weight="normal" fill="#000000" text-anchor="middle"><text xml:space="preserve" x="0" y="13.5498046875" stroke="none">Airport</text></g></g></g></g></g><g class="node"><g fill="#ffffff" stroke="#000000" stroke-width="4"><circle cx="-290.83969465648846" cy="0" r="52"/></g><g transform="translate(-290.83969465648846 0)"><g transform="scale(0.5312504687499999) translate(0 0)"><g transform="translate(0 0)"><g font-family="sans-serif" font-size="50" font-weight="normal" fill="#000000" text-anchor="middle"><text xml:space="preserve" x="0" y="13.5498046875" stroke="none">Aircraft</text></g></g></g></g></g><g class="node"><g fill="#ffffff" stroke="#000000" stroke-width="4"><circle cx="-290.83969465648846" cy="300.2797039799309" r="52"/></g><g transform="translate(-290.83969465648846 300.2797039799309)"><g transform="scale(0.44921930078124994) translate(0 0)"><g transform="translate(0 0)"><g font-family="sans-serif" font-size="50" font-weight="normal" fill="#000000" text-anchor="middle"><text xml:space="preserve" x="0" y="-16.4501953125" stroke="none">Aircraft</text><text xml:space="preserve" x="0" y="43.5498046875" stroke="none" text-anchor="middle">Type</text></g></g></g></g></g><g class="node"><g fill="#ffffff" stroke="#000000" stroke-width="4"><circle cx="-290.83969465648846" cy="599.9999999999527" r="52"/></g><g transform="translate(-290.83969465648846 599.9999999999527)"><g transform="scale(0.298828826171875) translate(0 0)"><g transform="translate(0 0)"><g font-family="sans-serif" font-size="50" font-weight="normal" fill="#000000" text-anchor="middle"><text xml:space="preserve" x="0" y="13.5498046875" stroke="none">Manufacturer</text></g></g></g></g></g><g class="node"><g fill="#ffffff" stroke="#000000" stroke-width="4"><circle cx="-5.673900368604351e-32" cy="270.81526717557443" r="52"/></g><g transform="translate(-5.673900368604351e-32 270.81526717557443)"><g transform="scale(0.6132816367187499) translate(0 0)"><g transform="translate(0 0)"><g font-family="sans-serif" font-size="50" font-weight="normal" fill="#000000" text-anchor="middle"><text xml:space="preserve" x="0" y="13.5498046875" stroke="none">Route</text></g></g></g></g></g></g></svg>